%TF.GenerationSoftware,KiCad,Pcbnew,8.0.9*%
%TF.CreationDate,2026-07-14T23:51:51-05:00*%
%TF.ProjectId,channel_a_b,6368616e-6e65-46c5-9f61-5f622e6b6963,rev?*%
%TF.SameCoordinates,Original*%
%TF.FileFunction,Soldermask,Top*%
%TF.FilePolarity,Negative*%
%FSLAX46Y46*%
G04 Gerber Fmt 4.6, Leading zero omitted, Abs format (unit mm)*
G04 Created by KiCad (PCBNEW 8.0.9) date 2026-07-14 23:51:51*
%MOMM*%
%LPD*%
G01*
G04 APERTURE LIST*
G04 Aperture macros list*
%AMRoundRect*
0 Rectangle with rounded corners*
0 $1 Rounding radius*
0 $2 $3 $4 $5 $6 $7 $8 $9 X,Y pos of 4 corners*
0 Add a 4 corners polygon primitive as box body*
4,1,4,$2,$3,$4,$5,$6,$7,$8,$9,$2,$3,0*
0 Add four circle primitives for the rounded corners*
1,1,$1+$1,$2,$3*
1,1,$1+$1,$4,$5*
1,1,$1+$1,$6,$7*
1,1,$1+$1,$8,$9*
0 Add four rect primitives between the rounded corners*
20,1,$1+$1,$2,$3,$4,$5,0*
20,1,$1+$1,$4,$5,$6,$7,0*
20,1,$1+$1,$6,$7,$8,$9,0*
20,1,$1+$1,$8,$9,$2,$3,0*%
G04 Aperture macros list end*
%ADD10C,3.200000*%
%ADD11RoundRect,0.250000X0.412500X0.650000X-0.412500X0.650000X-0.412500X-0.650000X0.412500X-0.650000X0*%
%ADD12RoundRect,0.237500X-0.250000X-0.237500X0.250000X-0.237500X0.250000X0.237500X-0.250000X0.237500X0*%
%ADD13RoundRect,0.237500X0.250000X0.237500X-0.250000X0.237500X-0.250000X-0.237500X0.250000X-0.237500X0*%
%ADD14RoundRect,0.250000X-0.412500X-0.650000X0.412500X-0.650000X0.412500X0.650000X-0.412500X0.650000X0*%
%ADD15RoundRect,0.250000X-0.650000X0.412500X-0.650000X-0.412500X0.650000X-0.412500X0.650000X0.412500X0*%
%ADD16R,1.800000X1.800000*%
%ADD17C,1.800000*%
%ADD18RoundRect,0.250000X0.650000X-0.412500X0.650000X0.412500X-0.650000X0.412500X-0.650000X-0.412500X0*%
%ADD19R,1.500000X1.500000*%
%ADD20C,1.500000*%
%ADD21O,3.000000X3.900000*%
%ADD22RoundRect,0.237500X0.237500X-0.250000X0.237500X0.250000X-0.237500X0.250000X-0.237500X-0.250000X0*%
%ADD23RoundRect,0.237500X-0.237500X0.250000X-0.237500X-0.250000X0.237500X-0.250000X0.237500X0.250000X0*%
%ADD24C,2.800000*%
%ADD25C,4.000000*%
%ADD26R,1.600000X1.600000*%
%ADD27O,1.600000X1.600000*%
%ADD28RoundRect,0.250000X0.325000X0.450000X-0.325000X0.450000X-0.325000X-0.450000X0.325000X-0.450000X0*%
%ADD29C,1.600000*%
%ADD30RoundRect,0.225000X-0.375000X0.225000X-0.375000X-0.225000X0.375000X-0.225000X0.375000X0.225000X0*%
%ADD31RoundRect,0.237500X-0.237500X0.300000X-0.237500X-0.300000X0.237500X-0.300000X0.237500X0.300000X0*%
%ADD32R,1.750000X1.750000*%
%ADD33C,1.750000*%
%ADD34C,2.700000*%
%ADD35RoundRect,0.237500X0.237500X-0.300000X0.237500X0.300000X-0.237500X0.300000X-0.237500X-0.300000X0*%
%ADD36R,4.000000X2.000000*%
%ADD37O,3.300000X2.000000*%
%ADD38O,2.000000X3.500000*%
%ADD39RoundRect,0.237500X0.300000X0.237500X-0.300000X0.237500X-0.300000X-0.237500X0.300000X-0.237500X0*%
%ADD40RoundRect,0.102000X0.679000X-0.679000X0.679000X0.679000X-0.679000X0.679000X-0.679000X-0.679000X0*%
%ADD41C,1.562000*%
%ADD42RoundRect,0.250000X-0.325000X-0.450000X0.325000X-0.450000X0.325000X0.450000X-0.325000X0.450000X0*%
G04 APERTURE END LIST*
D10*
%TO.C,REF\u002A\u002A*%
X247000000Y-156500000D03*
%TD*%
%TO.C,REF\u002A\u002A*%
X47500000Y-156500000D03*
%TD*%
%TO.C,REF\u002A\u002A*%
X247000000Y-45000000D03*
%TD*%
%TO.C,REF\u002A\u002A*%
X47500000Y-45000000D03*
%TD*%
D11*
%TO.C,C19*%
X105152756Y-141000000D03*
X102027756Y-141000000D03*
%TD*%
D12*
%TO.C,R29*%
X108477756Y-85737500D03*
X110302756Y-85737500D03*
%TD*%
D13*
%TO.C,R85*%
X136765256Y-137000000D03*
X134940256Y-137000000D03*
%TD*%
D14*
%TO.C,C29*%
X101370256Y-100000000D03*
X104495256Y-100000000D03*
%TD*%
%TO.C,C28*%
X95460256Y-87000000D03*
X98585256Y-87000000D03*
%TD*%
D15*
%TO.C,C25*%
X135590256Y-106615000D03*
X135590256Y-109740000D03*
%TD*%
D16*
%TO.C,SW4*%
X62167756Y-110000000D03*
D17*
X67167756Y-110000000D03*
X62167756Y-116000000D03*
X67167756Y-116000000D03*
%TD*%
D18*
%TO.C,C14*%
X180590256Y-114000000D03*
X180590256Y-110875000D03*
%TD*%
D12*
%TO.C,R59*%
X147177756Y-137000000D03*
X149002756Y-137000000D03*
%TD*%
D19*
%TO.C,RV11*%
X144790256Y-158532500D03*
D20*
X142790256Y-158532500D03*
X152790256Y-158532500D03*
X146790256Y-158532500D03*
X148790256Y-158532500D03*
X150790256Y-158532500D03*
D21*
X141990256Y-147532500D03*
X153590256Y-147532500D03*
%TD*%
D13*
%TO.C,R60*%
X153915256Y-137000000D03*
X152090256Y-137000000D03*
%TD*%
D12*
%TO.C,R18*%
X204677756Y-131912500D03*
X206502756Y-131912500D03*
%TD*%
%TO.C,R24*%
X202220256Y-105460000D03*
X204045256Y-105460000D03*
%TD*%
D22*
%TO.C,R46*%
X177090256Y-114325000D03*
X177090256Y-112500000D03*
%TD*%
D23*
%TO.C,R21*%
X88590256Y-130675000D03*
X88590256Y-132500000D03*
%TD*%
D12*
%TO.C,R81*%
X170177756Y-145000000D03*
X172002756Y-145000000D03*
%TD*%
D24*
%TO.C,J5*%
X104622756Y-62000000D03*
X102622756Y-54100000D03*
X104622756Y-56500000D03*
%TD*%
D12*
%TO.C,R65*%
X102765256Y-69500000D03*
X104590256Y-69500000D03*
%TD*%
D25*
%TO.C,RV7*%
X75402756Y-93300000D03*
X84202756Y-93300000D03*
D17*
X82302756Y-100300000D03*
X79802756Y-100300000D03*
X77302756Y-100300000D03*
%TD*%
D19*
%TO.C,RV15*%
X160590256Y-134032500D03*
D20*
X158590256Y-134032500D03*
X168590256Y-134032500D03*
X162590256Y-134032500D03*
X164590256Y-134032500D03*
X166590256Y-134032500D03*
D21*
X157790256Y-123032500D03*
X169390256Y-123032500D03*
%TD*%
D16*
%TO.C,SW6*%
X225590256Y-73000000D03*
D17*
X230590256Y-73000000D03*
X225590256Y-79000000D03*
X230590256Y-79000000D03*
%TD*%
D11*
%TO.C,C9*%
X130590256Y-112000000D03*
X127465256Y-112000000D03*
%TD*%
D13*
%TO.C,R58*%
X185542756Y-94200000D03*
X183717756Y-94200000D03*
%TD*%
D15*
%TO.C,C45*%
X135590256Y-89307500D03*
X135590256Y-92432500D03*
%TD*%
D25*
%TO.C,RV12*%
X143690256Y-126050000D03*
X152490256Y-126050000D03*
D17*
X150590256Y-133050000D03*
X148090256Y-133050000D03*
X145590256Y-133050000D03*
%TD*%
D11*
%TO.C,C18*%
X98432756Y-127800000D03*
X95307756Y-127800000D03*
%TD*%
D12*
%TO.C,R50*%
X175090256Y-110500000D03*
X176915256Y-110500000D03*
%TD*%
D26*
%TO.C,U1*%
X103670256Y-130500000D03*
D27*
X101130256Y-130500000D03*
X98590256Y-130500000D03*
X96050256Y-130500000D03*
X96050256Y-138120000D03*
X98590256Y-138120000D03*
X101130256Y-138120000D03*
X103670256Y-138120000D03*
%TD*%
D23*
%TO.C,R69*%
X150090256Y-77780000D03*
X150090256Y-79605000D03*
%TD*%
D14*
%TO.C,C42*%
X196157756Y-125520000D03*
X199282756Y-125520000D03*
%TD*%
%TO.C,C4*%
X190027756Y-141500000D03*
X193152756Y-141500000D03*
%TD*%
D22*
%TO.C,R74*%
X67802756Y-85000000D03*
X67802756Y-83175000D03*
%TD*%
D13*
%TO.C,R11*%
X113502756Y-130500000D03*
X111677756Y-130500000D03*
%TD*%
D14*
%TO.C,C41*%
X196157756Y-112520000D03*
X199282756Y-112520000D03*
%TD*%
D23*
%TO.C,R48*%
X204090256Y-118000000D03*
X204090256Y-119825000D03*
%TD*%
D22*
%TO.C,R62*%
X148590256Y-116000000D03*
X148590256Y-114175000D03*
%TD*%
%TO.C,R63*%
X151590256Y-116000000D03*
X151590256Y-114175000D03*
%TD*%
D14*
%TO.C,C8*%
X182907756Y-132010000D03*
X186032756Y-132010000D03*
%TD*%
D12*
%TO.C,R87*%
X166677756Y-137000000D03*
X168502756Y-137000000D03*
%TD*%
%TO.C,R80*%
X170177756Y-141930000D03*
X172002756Y-141930000D03*
%TD*%
D26*
%TO.C,U8*%
X96222756Y-123300000D03*
D27*
X98762756Y-123300000D03*
X101302756Y-123300000D03*
X103842756Y-123300000D03*
X103842756Y-115680000D03*
X101302756Y-115680000D03*
X98762756Y-115680000D03*
X96222756Y-115680000D03*
%TD*%
D14*
%TO.C,C32*%
X101330256Y-126180000D03*
X104455256Y-126180000D03*
%TD*%
D13*
%TO.C,R54*%
X185542756Y-103200000D03*
X183717756Y-103200000D03*
%TD*%
%TO.C,R47*%
X185542756Y-116762500D03*
X183717756Y-116762500D03*
%TD*%
D24*
%TO.C,J2*%
X162090256Y-146500000D03*
X164090256Y-154400000D03*
X162090256Y-152000000D03*
%TD*%
D28*
%TO.C,D4*%
X138115256Y-78500000D03*
X136065256Y-78500000D03*
%TD*%
D26*
%TO.C,U3*%
X191050256Y-139000000D03*
D27*
X193590256Y-139000000D03*
X196130256Y-139000000D03*
X198670256Y-139000000D03*
X198670256Y-131380000D03*
X196130256Y-131380000D03*
X193590256Y-131380000D03*
X191050256Y-131380000D03*
%TD*%
D13*
%TO.C,R4*%
X211990256Y-140122500D03*
X210165256Y-140122500D03*
%TD*%
D26*
%TO.C,C55*%
X125140256Y-65772500D03*
D29*
X122640256Y-65772500D03*
%TD*%
D26*
%TO.C,U6*%
X124970256Y-101507500D03*
D27*
X124970256Y-104047500D03*
X124970256Y-106587500D03*
X124970256Y-109127500D03*
X132590256Y-109127500D03*
X132590256Y-106587500D03*
X132590256Y-104047500D03*
X132590256Y-101507500D03*
%TD*%
D30*
%TO.C,D6*%
X157590256Y-72850000D03*
X157590256Y-76150000D03*
%TD*%
D22*
%TO.C,R1*%
X109090256Y-143412500D03*
X109090256Y-141587500D03*
%TD*%
D12*
%TO.C,R12*%
X183677756Y-129500000D03*
X185502756Y-129500000D03*
%TD*%
D30*
%TO.C,D3*%
X138590256Y-72350000D03*
X138590256Y-75650000D03*
%TD*%
D14*
%TO.C,C36*%
X190417756Y-112520000D03*
X193542756Y-112520000D03*
%TD*%
%TO.C,C47*%
X197027756Y-141500000D03*
X200152756Y-141500000D03*
%TD*%
D22*
%TO.C,R5*%
X112090256Y-143412500D03*
X112090256Y-141587500D03*
%TD*%
D11*
%TO.C,C23*%
X213152756Y-127000000D03*
X210027756Y-127000000D03*
%TD*%
%TO.C,C1*%
X112152756Y-146500000D03*
X109027756Y-146500000D03*
%TD*%
%TO.C,C6*%
X186032756Y-138010000D03*
X182907756Y-138010000D03*
%TD*%
D15*
%TO.C,C44*%
X148590256Y-89307500D03*
X148590256Y-92432500D03*
%TD*%
D12*
%TO.C,R20*%
X202220256Y-108420000D03*
X204045256Y-108420000D03*
%TD*%
D22*
%TO.C,R36*%
X113350256Y-101737500D03*
X113350256Y-99912500D03*
%TD*%
D15*
%TO.C,C35*%
X148590256Y-83567500D03*
X148590256Y-86692500D03*
%TD*%
D26*
%TO.C,C56*%
X117640256Y-65772500D03*
D29*
X115140256Y-65772500D03*
%TD*%
D13*
%TO.C,R19*%
X91302756Y-107300000D03*
X89477756Y-107300000D03*
%TD*%
D26*
%TO.C,U5*%
X138290256Y-101507500D03*
D27*
X138290256Y-104047500D03*
X138290256Y-106587500D03*
X138290256Y-109127500D03*
X145910256Y-109127500D03*
X145910256Y-106587500D03*
X145910256Y-104047500D03*
X145910256Y-101507500D03*
%TD*%
D14*
%TO.C,C46*%
X190417756Y-128942500D03*
X193542756Y-128942500D03*
%TD*%
D22*
%TO.C,R9*%
X133090256Y-74412500D03*
X133090256Y-72587500D03*
%TD*%
D13*
%TO.C,R43*%
X185542756Y-122700000D03*
X183717756Y-122700000D03*
%TD*%
D14*
%TO.C,C30*%
X95590256Y-100000000D03*
X98715256Y-100000000D03*
%TD*%
D25*
%TO.C,RV9*%
X75402756Y-74800000D03*
X84202756Y-74800000D03*
D17*
X82302756Y-81800000D03*
X79802756Y-81800000D03*
X77302756Y-81800000D03*
%TD*%
D12*
%TO.C,R44*%
X183717756Y-119700000D03*
X185542756Y-119700000D03*
%TD*%
D23*
%TO.C,R67*%
X237090256Y-138650000D03*
X237090256Y-140475000D03*
%TD*%
D12*
%TO.C,R49*%
X183717756Y-109500000D03*
X185542756Y-109500000D03*
%TD*%
D26*
%TO.C,C58*%
X168385144Y-92000000D03*
D29*
X170885144Y-92000000D03*
%TD*%
D12*
%TO.C,R30*%
X115302756Y-91800000D03*
X117127756Y-91800000D03*
%TD*%
D24*
%TO.C,J1*%
X129765256Y-146400000D03*
X131765256Y-154300000D03*
X129765256Y-151900000D03*
%TD*%
D16*
%TO.C,SW7*%
X225590256Y-109577500D03*
D17*
X230590256Y-109577500D03*
X225590256Y-115577500D03*
X230590256Y-115577500D03*
%TD*%
D15*
%TO.C,C26*%
X135470256Y-100875000D03*
X135470256Y-104000000D03*
%TD*%
D13*
%TO.C,R40*%
X110302756Y-107800000D03*
X108477756Y-107800000D03*
%TD*%
D23*
%TO.C,R35*%
X117262756Y-99912500D03*
X117262756Y-101737500D03*
%TD*%
D31*
%TO.C,C15*%
X181590256Y-92500000D03*
X181590256Y-94225000D03*
%TD*%
D25*
%TO.C,RV2*%
X168690256Y-78050000D03*
X177490256Y-78050000D03*
D17*
X175590256Y-85050000D03*
X173090256Y-85050000D03*
X170590256Y-85050000D03*
%TD*%
D14*
%TO.C,C2*%
X184527756Y-148000000D03*
X187652756Y-148000000D03*
%TD*%
D13*
%TO.C,R71*%
X191590256Y-68000000D03*
X189765256Y-68000000D03*
%TD*%
%TO.C,R33*%
X110302756Y-97737500D03*
X108477756Y-97737500D03*
%TD*%
D26*
%TO.C,C62*%
X230090256Y-134000000D03*
D29*
X230090256Y-131500000D03*
%TD*%
D15*
%TO.C,C43*%
X148590256Y-106615000D03*
X148590256Y-109740000D03*
%TD*%
D14*
%TO.C,C31*%
X101330256Y-113000000D03*
X104455256Y-113000000D03*
%TD*%
D19*
%TO.C,RV14*%
X128590256Y-134032500D03*
D20*
X126590256Y-134032500D03*
X136590256Y-134032500D03*
X130590256Y-134032500D03*
X132590256Y-134032500D03*
X134590256Y-134032500D03*
D21*
X125790256Y-123032500D03*
X137390256Y-123032500D03*
%TD*%
D13*
%TO.C,R22*%
X91302756Y-104340000D03*
X89477756Y-104340000D03*
%TD*%
D25*
%TO.C,RV13*%
X144190256Y-62550000D03*
X152990256Y-62550000D03*
D17*
X151090256Y-69550000D03*
X148590256Y-69550000D03*
X146090256Y-69550000D03*
%TD*%
D22*
%TO.C,R75*%
X226530256Y-84825000D03*
X226530256Y-83000000D03*
%TD*%
D13*
%TO.C,R79*%
X125665256Y-141500000D03*
X123840256Y-141500000D03*
%TD*%
D25*
%TO.C,RV10*%
X209190256Y-75122500D03*
X217990256Y-75122500D03*
D17*
X216090256Y-82122500D03*
X213590256Y-82122500D03*
X211090256Y-82122500D03*
%TD*%
D11*
%TO.C,C22*%
X218922756Y-140122500D03*
X215797756Y-140122500D03*
%TD*%
D30*
%TO.C,D2*%
X161090256Y-72850000D03*
X161090256Y-76150000D03*
%TD*%
D22*
%TO.C,R73*%
X64590256Y-85000000D03*
X64590256Y-83175000D03*
%TD*%
D32*
%TO.C,RV4*%
X245950000Y-68480000D03*
D33*
X242450000Y-68480000D03*
X245950000Y-126980000D03*
D34*
X240000000Y-72630000D03*
X248400000Y-73830000D03*
X248400000Y-121630000D03*
X240000000Y-122830000D03*
%TD*%
D16*
%TO.C,SW5*%
X62167756Y-91327500D03*
D17*
X67167756Y-91327500D03*
X62167756Y-97327500D03*
X67167756Y-97327500D03*
%TD*%
D12*
%TO.C,R84*%
X126352756Y-137000000D03*
X128177756Y-137000000D03*
%TD*%
D22*
%TO.C,R68*%
X146915256Y-79605000D03*
X146915256Y-77780000D03*
%TD*%
%TO.C,R77*%
X232510256Y-84825000D03*
X232510256Y-83000000D03*
%TD*%
D26*
%TO.C,U11*%
X191050256Y-122820000D03*
D27*
X193590256Y-122820000D03*
X196130256Y-122820000D03*
X198670256Y-122820000D03*
X198670256Y-115200000D03*
X196130256Y-115200000D03*
X193590256Y-115200000D03*
X191050256Y-115200000D03*
%TD*%
D26*
%TO.C,U7*%
X96222756Y-97300000D03*
D27*
X98762756Y-97300000D03*
X101302756Y-97300000D03*
X103842756Y-97300000D03*
X103842756Y-89680000D03*
X101302756Y-89680000D03*
X98762756Y-89680000D03*
X96222756Y-89680000D03*
%TD*%
D16*
%TO.C,SW3*%
X62167756Y-72577500D03*
D17*
X67167756Y-72577500D03*
X62167756Y-78577500D03*
X67167756Y-78577500D03*
%TD*%
D15*
%TO.C,C17*%
X161590256Y-83567500D03*
X161590256Y-86692500D03*
%TD*%
D14*
%TO.C,C33*%
X95590256Y-113000000D03*
X98715256Y-113000000D03*
%TD*%
D26*
%TO.C,U4*%
X218290256Y-129822500D03*
D27*
X215750256Y-129822500D03*
X213210256Y-129822500D03*
X210670256Y-129822500D03*
X210670256Y-137442500D03*
X213210256Y-137442500D03*
X215750256Y-137442500D03*
X218290256Y-137442500D03*
%TD*%
D26*
%TO.C,C60*%
X118090256Y-135000000D03*
D29*
X120590256Y-135000000D03*
%TD*%
D15*
%TO.C,C48*%
X161590256Y-106615000D03*
X161590256Y-109740000D03*
%TD*%
D12*
%TO.C,R53*%
X183717756Y-91200000D03*
X185542756Y-91200000D03*
%TD*%
D22*
%TO.C,R2*%
X186090256Y-142912500D03*
X186090256Y-141087500D03*
%TD*%
D11*
%TO.C,C20*%
X83207756Y-137500000D03*
X80082756Y-137500000D03*
%TD*%
D18*
%TO.C,C10*%
X113770256Y-97800000D03*
X113770256Y-94675000D03*
%TD*%
D22*
%TO.C,R27*%
X109590256Y-133412500D03*
X109590256Y-131587500D03*
%TD*%
D26*
%TO.C,U12*%
X191050256Y-97000000D03*
D27*
X193590256Y-97000000D03*
X196130256Y-97000000D03*
X198670256Y-97000000D03*
X198670256Y-89380000D03*
X196130256Y-89380000D03*
X193590256Y-89380000D03*
X191050256Y-89380000D03*
%TD*%
D26*
%TO.C,U16*%
X151290256Y-84200000D03*
D27*
X151290256Y-86740000D03*
X151290256Y-89280000D03*
X151290256Y-91820000D03*
X158910256Y-91820000D03*
X158910256Y-89280000D03*
X158910256Y-86740000D03*
X158910256Y-84200000D03*
%TD*%
D14*
%TO.C,C40*%
X196157756Y-99520000D03*
X199282756Y-99520000D03*
%TD*%
D13*
%TO.C,R17*%
X91002756Y-129000000D03*
X89177756Y-129000000D03*
%TD*%
%TO.C,R8*%
X176002756Y-88000000D03*
X174177756Y-88000000D03*
%TD*%
D25*
%TO.C,RV8*%
X209190256Y-93622500D03*
X217990256Y-93622500D03*
D17*
X216090256Y-100622500D03*
X213590256Y-100622500D03*
X211090256Y-100622500D03*
%TD*%
D15*
%TO.C,C27*%
X121970256Y-106615000D03*
X121970256Y-109740000D03*
%TD*%
D13*
%TO.C,R78*%
X125665256Y-144500000D03*
X123840256Y-144500000D03*
%TD*%
D12*
%TO.C,R57*%
X183717756Y-100200000D03*
X185542756Y-100200000D03*
%TD*%
D15*
%TO.C,C37*%
X161590256Y-100875000D03*
X161590256Y-104000000D03*
%TD*%
D22*
%TO.C,R10*%
X163590256Y-75062500D03*
X163590256Y-73237500D03*
%TD*%
D23*
%TO.C,R66*%
X57402756Y-138800000D03*
X57402756Y-140625000D03*
%TD*%
D26*
%TO.C,C59*%
X63590256Y-132000000D03*
D29*
X66090256Y-132000000D03*
%TD*%
D22*
%TO.C,R52*%
X188590256Y-110000000D03*
X188590256Y-108175000D03*
%TD*%
D26*
%TO.C,U10*%
X164290256Y-101507500D03*
D27*
X164290256Y-104047500D03*
X164290256Y-106587500D03*
X164290256Y-109127500D03*
X171910256Y-109127500D03*
X171910256Y-106587500D03*
X171910256Y-104047500D03*
X171910256Y-101507500D03*
%TD*%
D26*
%TO.C,U13*%
X191050256Y-110000000D03*
D27*
X193590256Y-110000000D03*
X196130256Y-110000000D03*
X198670256Y-110000000D03*
X198670256Y-102380000D03*
X196130256Y-102380000D03*
X193590256Y-102380000D03*
X191050256Y-102380000D03*
%TD*%
D13*
%TO.C,R42*%
X110302756Y-117000000D03*
X108477756Y-117000000D03*
%TD*%
D23*
%TO.C,R23*%
X207090256Y-134587500D03*
X207090256Y-136412500D03*
%TD*%
D12*
%TO.C,R56*%
X183717756Y-106200000D03*
X185542756Y-106200000D03*
%TD*%
D22*
%TO.C,R72*%
X61452756Y-85000000D03*
X61452756Y-83175000D03*
%TD*%
D12*
%TO.C,R37*%
X108477756Y-119800000D03*
X110302756Y-119800000D03*
%TD*%
D26*
%TO.C,C63*%
X120140256Y-59534887D03*
D29*
X120140256Y-62034887D03*
%TD*%
D11*
%TO.C,C7*%
X98152756Y-141000000D03*
X95027756Y-141000000D03*
%TD*%
D12*
%TO.C,R64*%
X142265256Y-137000000D03*
X144090256Y-137000000D03*
%TD*%
%TO.C,R38*%
X108477756Y-104800000D03*
X110302756Y-104800000D03*
%TD*%
%TO.C,R86*%
X158177756Y-137000000D03*
X160002756Y-137000000D03*
%TD*%
%TO.C,R28*%
X108477756Y-91800000D03*
X110302756Y-91800000D03*
%TD*%
D15*
%TO.C,C34*%
X174590256Y-100875000D03*
X174590256Y-104000000D03*
%TD*%
D25*
%TO.C,RV1*%
X119690256Y-78000000D03*
X128490256Y-78000000D03*
D17*
X126590256Y-85000000D03*
X124090256Y-85000000D03*
X121590256Y-85000000D03*
%TD*%
D13*
%TO.C,R55*%
X185542756Y-88200000D03*
X183717756Y-88200000D03*
%TD*%
D12*
%TO.C,R39*%
X108477756Y-123000000D03*
X110302756Y-123000000D03*
%TD*%
D23*
%TO.C,R61*%
X145590256Y-114175000D03*
X145590256Y-116000000D03*
%TD*%
D31*
%TO.C,C64*%
X125140256Y-59515000D03*
X125140256Y-61240000D03*
%TD*%
D23*
%TO.C,R32*%
X117262756Y-95237500D03*
X117262756Y-97062500D03*
%TD*%
D30*
%TO.C,D1*%
X135590256Y-72350000D03*
X135590256Y-75650000D03*
%TD*%
D12*
%TO.C,R82*%
X193447756Y-68000000D03*
X195272756Y-68000000D03*
%TD*%
D16*
%TO.C,SW2*%
X242045256Y-132500000D03*
D17*
X247045256Y-132500000D03*
X242045256Y-138500000D03*
X247045256Y-138500000D03*
%TD*%
D26*
%TO.C,U15*%
X138290256Y-84200000D03*
D27*
X138290256Y-86740000D03*
X138290256Y-89280000D03*
X138290256Y-91820000D03*
X145910256Y-91820000D03*
X145910256Y-89280000D03*
X145910256Y-86740000D03*
X145910256Y-84200000D03*
%TD*%
D12*
%TO.C,R31*%
X124607756Y-99000000D03*
X126432756Y-99000000D03*
%TD*%
D26*
%TO.C,U2*%
X82702756Y-127000000D03*
D27*
X80162756Y-127000000D03*
X77622756Y-127000000D03*
X75082756Y-127000000D03*
X75082756Y-134620000D03*
X77622756Y-134620000D03*
X80162756Y-134620000D03*
X82702756Y-134620000D03*
%TD*%
D12*
%TO.C,R14*%
X184177756Y-135000000D03*
X186002756Y-135000000D03*
%TD*%
D11*
%TO.C,C5*%
X112065256Y-139000000D03*
X108940256Y-139000000D03*
%TD*%
D16*
%TO.C,SW1*%
X47880256Y-133300000D03*
D17*
X52880256Y-133300000D03*
X47880256Y-139300000D03*
X52880256Y-139300000D03*
%TD*%
D14*
%TO.C,C38*%
X190417756Y-86520000D03*
X193542756Y-86520000D03*
%TD*%
D12*
%TO.C,R3*%
X74490256Y-141300000D03*
X76315256Y-141300000D03*
%TD*%
D22*
%TO.C,R76*%
X229590256Y-84825000D03*
X229590256Y-83000000D03*
%TD*%
D13*
%TO.C,R25*%
X76227756Y-138300000D03*
X74402756Y-138300000D03*
%TD*%
D11*
%TO.C,C21*%
X77685256Y-123500000D03*
X74560256Y-123500000D03*
%TD*%
D18*
%TO.C,C3*%
X92550256Y-138245000D03*
X92550256Y-135120000D03*
%TD*%
D12*
%TO.C,R34*%
X108477756Y-94737500D03*
X110302756Y-94737500D03*
%TD*%
D11*
%TO.C,C13*%
X172152756Y-112000000D03*
X169027756Y-112000000D03*
%TD*%
D25*
%TO.C,RV6*%
X209190256Y-111622500D03*
X217990256Y-111622500D03*
D17*
X216090256Y-118622500D03*
X213590256Y-118622500D03*
X211090256Y-118622500D03*
%TD*%
D35*
%TO.C,C11*%
X113350256Y-119362500D03*
X113350256Y-117637500D03*
%TD*%
D23*
%TO.C,R51*%
X180550256Y-106875000D03*
X180550256Y-108700000D03*
%TD*%
D16*
%TO.C,SW8*%
X225590256Y-91650000D03*
D17*
X230590256Y-91650000D03*
X225590256Y-97650000D03*
X230590256Y-97650000D03*
%TD*%
D25*
%TO.C,RV5*%
X75402756Y-111800000D03*
X84202756Y-111800000D03*
D17*
X82302756Y-118800000D03*
X79802756Y-118800000D03*
X77302756Y-118800000D03*
%TD*%
D26*
%TO.C,U14*%
X151290256Y-101507500D03*
D27*
X151290256Y-104047500D03*
X151290256Y-106587500D03*
X151290256Y-109127500D03*
X158910256Y-109127500D03*
X158910256Y-106587500D03*
X158910256Y-104047500D03*
X158910256Y-101507500D03*
%TD*%
D14*
%TO.C,C39*%
X190417756Y-99520000D03*
X193542756Y-99520000D03*
%TD*%
D13*
%TO.C,R13*%
X113415256Y-133500000D03*
X111590256Y-133500000D03*
%TD*%
D29*
%TO.C,J3*%
X120140256Y-46040000D03*
D36*
X120140256Y-55040000D03*
D37*
X120140256Y-49040000D03*
D38*
X124640256Y-48040000D03*
X115640256Y-48040000D03*
%TD*%
D39*
%TO.C,C16*%
X185492756Y-97200000D03*
X183767756Y-97200000D03*
%TD*%
D12*
%TO.C,R83*%
X98765256Y-69500000D03*
X100590256Y-69500000D03*
%TD*%
D15*
%TO.C,C24*%
X148590256Y-100875000D03*
X148590256Y-104000000D03*
%TD*%
D12*
%TO.C,R70*%
X147765256Y-74692500D03*
X149590256Y-74692500D03*
%TD*%
%TO.C,R26*%
X210165256Y-143622500D03*
X211990256Y-143622500D03*
%TD*%
D26*
%TO.C,C57*%
X126885144Y-92000000D03*
D29*
X129385144Y-92000000D03*
%TD*%
D12*
%TO.C,R45*%
X183717756Y-125700000D03*
X185542756Y-125700000D03*
%TD*%
D22*
%TO.C,R15*%
X91590256Y-132500000D03*
X91590256Y-130675000D03*
%TD*%
D32*
%TO.C,RV3*%
X52050000Y-68480000D03*
D33*
X48550000Y-68480000D03*
X52050000Y-126980000D03*
D34*
X46100000Y-72630000D03*
X54500000Y-73830000D03*
X54500000Y-121630000D03*
X46100000Y-122830000D03*
%TD*%
D12*
%TO.C,R41*%
X108477756Y-110800000D03*
X110302756Y-110800000D03*
%TD*%
D13*
%TO.C,R7*%
X123090256Y-87450000D03*
X121265256Y-87450000D03*
%TD*%
D26*
%TO.C,C61*%
X174385144Y-135000000D03*
D29*
X176885144Y-135000000D03*
%TD*%
D40*
%TO.C,PS1*%
X131090256Y-62580000D03*
D41*
X131090256Y-60040000D03*
X131090256Y-57500000D03*
X131090256Y-52420000D03*
X131090256Y-49880000D03*
X131090256Y-47340000D03*
X131090256Y-44800000D03*
%TD*%
D22*
%TO.C,R6*%
X183090256Y-143000000D03*
X183090256Y-141175000D03*
%TD*%
D26*
%TO.C,U9*%
X96222756Y-109980000D03*
D27*
X98762756Y-109980000D03*
X101302756Y-109980000D03*
X103842756Y-109980000D03*
X103842756Y-102360000D03*
X101302756Y-102360000D03*
X98762756Y-102360000D03*
X96222756Y-102360000D03*
%TD*%
D39*
%TO.C,C12*%
X110252756Y-114000000D03*
X108527756Y-114000000D03*
%TD*%
D24*
%TO.C,J4*%
X193090256Y-61000000D03*
X191090256Y-53100000D03*
X193090256Y-55500000D03*
%TD*%
D42*
%TO.C,D5*%
X158565256Y-78150000D03*
X160615256Y-78150000D03*
%TD*%
D22*
%TO.C,R16*%
X204090256Y-136412500D03*
X204090256Y-134587500D03*
%TD*%
M02*
