M48
; DRILL file {KiCad 8.0.9} date 2026-07-14T23:51:55-0500
; FORMAT={-:-/ absolute / metric / decimal}
; #@! TF.CreationDate,2026-07-14T23:51:55-05:00
; #@! TF.GenerationSoftware,Kicad,Pcbnew,8.0.9
; #@! TF.FileFunction,MixedPlating,1,2
FMAT,2
METRIC
; #@! TA.AperFunction,Plated,PTH,ViaDrill
T1C0.300
; #@! TA.AperFunction,Plated,PTH,ViaDrill
T2C0.400
; #@! TA.AperFunction,Plated,PTH,ComponentDrill
T3C0.800
; #@! TA.AperFunction,Plated,PTH,ComponentDrill
T4C0.850
; #@! TA.AperFunction,Plated,PTH,ComponentDrill
T5C0.900
; #@! TA.AperFunction,Plated,PTH,ComponentDrill
T6C1.000
; #@! TA.AperFunction,Plated,PTH,ComponentDrill
T7C1.200
; #@! TA.AperFunction,Plated,PTH,ComponentDrill
T8C1.700
; #@! TA.AperFunction,Plated,PTH,ComponentDrill
T9C2.000
; #@! TA.AperFunction,NonPlated,NPTH,ComponentDrill
T10C1.600
; #@! TA.AperFunction,NonPlated,NPTH,ComponentDrill
T11C2.200
; #@! TA.AperFunction,NonPlated,NPTH,ComponentDrill
T12C3.200
%
G90
G05
T1
X76.09Y-126.0
X80.04Y-124.55
X85.09Y-135.0
X93.59Y-118.0
X94.09Y-102.0
X94.09Y-110.5
X96.59Y-94.5
X97.09Y-114.0
X100.59Y-88.0
X102.59Y-111.0
X103.09Y-112.5
X105.59Y-98.5
X105.59Y-111.0
X105.59Y-119.5
X106.09Y-106.25
X106.09Y-126.0
X106.09Y-147.5
X106.59Y-112.5
X106.59Y-116.0
X107.09Y-141.5
X110.09Y-126.0
X112.59Y-107.5
X113.09Y-135.5
X113.35Y-103.26
X114.09Y-99.0
X114.59Y-133.5
X115.59Y-142.5
X116.09Y-137.0
X116.59Y-131.5
X117.09Y-105.0
X118.09Y-98.5
X118.59Y-102.5
X119.59Y-120.758
X121.09Y-132.0
X127.09Y-70.5
X134.59Y-99.5
X137.09Y-71.0
X139.09Y-68.5
X143.59Y-99.5
X144.59Y-112.0
X148.09Y-111.5
X152.59Y-86.0
X157.09Y-85.0
X161.09Y-69.0
X161.59Y-66.0
X161.59Y-111.5
X171.59Y-98.5
X172.09Y-129.5
X172.59Y-100.0
X173.59Y-109.0
X174.59Y-116.5
X175.09Y-105.5
X175.09Y-132.0
X175.59Y-83.0
X177.09Y-104.5
X177.59Y-85.5
X178.09Y-106.5
X178.59Y-110.0
X182.09Y-86.5
X182.09Y-105.0
X184.09Y-108.5
X186.59Y-97.5
X186.59Y-101.5
X187.59Y-98.5
X187.59Y-102.5
X187.59Y-107.0
X189.09Y-89.5
X189.09Y-100.0
X189.38Y-129.71
X189.59Y-114.0
X189.59Y-119.0
X192.09Y-125.0
X192.59Y-105.0
X195.09Y-116.5
X198.09Y-126.0
X198.459Y-134.869
X200.09Y-97.5
X200.59Y-107.0
X201.09Y-112.5
X201.09Y-129.0
X202.097Y-116.507
X205.09Y-130.5
X208.09Y-130.0
X212.59Y-139.0
X214.59Y-132.0
X217.59Y-119.0
X220.09Y-118.0
X223.59Y-132.5
T2
X80.09Y-139.5
X100.59Y-86.0
X127.59Y-87.5
X132.59Y-90.0
X192.09Y-85.5
X196.09Y-120.5
T3
X63.59Y-132.0
X66.09Y-132.0
X75.083Y-127.0
X75.083Y-134.62
X77.623Y-127.0
X77.623Y-134.62
X80.163Y-127.0
X80.163Y-134.62
X82.703Y-127.0
X82.703Y-134.62
X96.05Y-130.5
X96.05Y-138.12
X96.223Y-89.68
X96.223Y-97.3
X96.223Y-102.36
X96.223Y-109.98
X96.223Y-115.68
X96.223Y-123.3
X98.59Y-130.5
X98.59Y-138.12
X98.763Y-89.68
X98.763Y-97.3
X98.763Y-102.36
X98.763Y-109.98
X98.763Y-115.68
X98.763Y-123.3
X101.13Y-130.5
X101.13Y-138.12
X101.303Y-89.68
X101.303Y-97.3
X101.303Y-102.36
X101.303Y-109.98
X101.303Y-115.68
X101.303Y-123.3
X103.67Y-130.5
X103.67Y-138.12
X103.843Y-89.68
X103.843Y-97.3
X103.843Y-102.36
X103.843Y-109.98
X103.843Y-115.68
X103.843Y-123.3
X115.14Y-65.772
X117.64Y-65.772
X118.09Y-135.0
X120.14Y-59.535
X120.14Y-62.035
X120.59Y-135.0
X122.64Y-65.772
X124.97Y-101.507
X124.97Y-104.047
X124.97Y-106.587
X124.97Y-109.127
X125.14Y-65.772
X126.885Y-92.0
X129.385Y-92.0
X132.59Y-101.507
X132.59Y-104.047
X132.59Y-106.587
X132.59Y-109.127
X138.29Y-84.2
X138.29Y-86.74
X138.29Y-89.28
X138.29Y-91.82
X138.29Y-101.507
X138.29Y-104.047
X138.29Y-106.587
X138.29Y-109.127
X145.91Y-84.2
X145.91Y-86.74
X145.91Y-89.28
X145.91Y-91.82
X145.91Y-101.507
X145.91Y-104.047
X145.91Y-106.587
X145.91Y-109.127
X151.29Y-84.2
X151.29Y-86.74
X151.29Y-89.28
X151.29Y-91.82
X151.29Y-101.507
X151.29Y-104.047
X151.29Y-106.587
X151.29Y-109.127
X158.91Y-84.2
X158.91Y-86.74
X158.91Y-89.28
X158.91Y-91.82
X158.91Y-101.507
X158.91Y-104.047
X158.91Y-106.587
X158.91Y-109.127
X164.29Y-101.507
X164.29Y-104.047
X164.29Y-106.587
X164.29Y-109.127
X168.385Y-92.0
X170.885Y-92.0
X171.91Y-101.507
X171.91Y-104.047
X171.91Y-106.587
X171.91Y-109.127
X174.385Y-135.0
X176.885Y-135.0
X191.05Y-89.38
X191.05Y-97.0
X191.05Y-102.38
X191.05Y-110.0
X191.05Y-115.2
X191.05Y-122.82
X191.05Y-131.38
X191.05Y-139.0
X193.59Y-89.38
X193.59Y-97.0
X193.59Y-102.38
X193.59Y-110.0
X193.59Y-115.2
X193.59Y-122.82
X193.59Y-131.38
X193.59Y-139.0
X196.13Y-89.38
X196.13Y-97.0
X196.13Y-102.38
X196.13Y-110.0
X196.13Y-115.2
X196.13Y-122.82
X196.13Y-131.38
X196.13Y-139.0
X198.67Y-89.38
X198.67Y-97.0
X198.67Y-102.38
X198.67Y-110.0
X198.67Y-115.2
X198.67Y-122.82
X198.67Y-131.38
X198.67Y-139.0
X210.67Y-129.822
X210.67Y-137.442
X213.21Y-129.822
X213.21Y-137.442
X215.75Y-129.822
X215.75Y-137.442
X218.29Y-129.822
X218.29Y-137.442
X230.09Y-131.5
X230.09Y-134.0
T4
X131.09Y-44.8
X131.09Y-47.34
X131.09Y-49.88
X131.09Y-52.42
X131.09Y-57.5
X131.09Y-60.04
X131.09Y-62.58
T5
X47.88Y-133.3
X47.88Y-139.3
X52.88Y-133.3
X52.88Y-139.3
X62.168Y-72.578
X62.168Y-78.578
X62.168Y-91.328
X62.168Y-97.328
X62.168Y-110.0
X62.168Y-116.0
X67.168Y-72.578
X67.168Y-78.578
X67.168Y-91.328
X67.168Y-97.328
X67.168Y-110.0
X67.168Y-116.0
X225.59Y-73.0
X225.59Y-79.0
X225.59Y-91.65
X225.59Y-97.65
X225.59Y-109.578
X225.59Y-115.578
X230.59Y-73.0
X230.59Y-79.0
X230.59Y-91.65
X230.59Y-97.65
X230.59Y-109.578
X230.59Y-115.578
X242.045Y-132.5
X242.045Y-138.5
X247.045Y-132.5
X247.045Y-138.5
T6
X77.303Y-81.8
X77.303Y-100.3
X77.303Y-118.8
X79.803Y-81.8
X79.803Y-100.3
X79.803Y-118.8
X82.303Y-81.8
X82.303Y-100.3
X82.303Y-118.8
X121.59Y-85.0
X124.09Y-85.0
X126.59Y-85.0
X126.59Y-134.032
X128.59Y-134.032
X130.59Y-134.032
X132.59Y-134.032
X134.59Y-134.032
X136.59Y-134.032
X142.79Y-158.532
X144.79Y-158.532
X145.59Y-133.05
X146.09Y-69.55
X146.79Y-158.532
X148.09Y-133.05
X148.59Y-69.55
X148.79Y-158.532
X150.59Y-133.05
X150.79Y-158.532
X151.09Y-69.55
X152.79Y-158.532
X158.59Y-134.032
X160.59Y-134.032
X162.59Y-134.032
X164.59Y-134.032
X166.59Y-134.032
X168.59Y-134.032
X170.59Y-85.05
X173.09Y-85.05
X175.59Y-85.05
X211.09Y-82.123
X211.09Y-100.623
X211.09Y-118.622
X213.59Y-82.123
X213.59Y-100.623
X213.59Y-118.622
X216.09Y-82.123
X216.09Y-100.623
X216.09Y-118.622
T7
X48.55Y-68.48
X52.05Y-68.48
X52.05Y-126.98
X242.45Y-68.48
X245.95Y-68.48
X245.95Y-126.98
T8
X46.1Y-72.63
X46.1Y-122.83
X54.5Y-73.83
X54.5Y-121.63
X240.0Y-72.63
X240.0Y-122.83
X248.4Y-73.83
X248.4Y-121.63
T9
X102.623Y-54.1
X104.623Y-56.5
X104.623Y-62.0
X129.765Y-146.4
X129.765Y-151.9
X131.765Y-154.3
X162.09Y-146.5
X162.09Y-152.0
X164.09Y-154.4
X191.09Y-53.1
X193.09Y-55.5
X193.09Y-61.0
T10
X120.14Y-46.04
T11
X75.403Y-74.8
X75.403Y-93.3
X75.403Y-111.8
X84.203Y-74.8
X84.203Y-93.3
X84.203Y-111.8
X119.69Y-78.0
X128.49Y-78.0
X143.69Y-126.05
X144.19Y-62.55
X152.49Y-126.05
X152.99Y-62.55
X168.69Y-78.05
X177.49Y-78.05
X209.19Y-75.123
X209.19Y-93.623
X209.19Y-111.622
X217.99Y-75.123
X217.99Y-93.623
X217.99Y-111.622
T12
X47.5Y-45.0
X47.5Y-156.5
X247.0Y-45.0
X247.0Y-156.5
T6
X115.64Y-48.79G85X115.64Y-47.29
G05
X120.79Y-49.04G85X119.49Y-49.04
G05
X121.14Y-55.04G85X119.14Y-55.04
G05
X124.64Y-48.79G85X124.64Y-47.29
G05
T9
X125.79Y-122.582G85X125.79Y-123.482
G05
X137.39Y-122.582G85X137.39Y-123.482
G05
X141.99Y-147.082G85X141.99Y-147.982
G05
X153.59Y-147.082G85X153.59Y-147.982
G05
X157.79Y-122.582G85X157.79Y-123.482
G05
X169.39Y-122.582G85X169.39Y-123.482
G05
M30
